<svg xmlns="http://www.w3.org/2000/svg" xmlns:xlink="http://www.w3.org/1999/xlink" width="14" height="14" version="1.1" viewBox="0 0 14 14"><title>92998634-206B-4E9C-9A7F-471160622846</title><g id="Home" fill="none" fill-rule="evenodd" stroke="none" stroke-width="1"><g id="VSC-icons" fill="#C5C5C5" fill-rule="nonzero" transform="translate(-821.000000, -133.000000)"><path id="Delete" d="M833,137 L833,146.5 L832.5,147 L823.5,147 L823,146.5 L823,137 L833,137 Z M832,138 L824,138 L824,146 L832,146 L832,138 Z M827,140 L827,144 L826,144 L826,140 L827,140 Z M830,140 L830,144 L829,144 L829,140 L830,140 Z M831,133 L831,135 L835,135 L835,136 L821,136 L821,135 L825,135 L825,133 L831,133 Z M830,134 L826,134 L826,135 L830,135 L830,134 Z"/></g></g></svg>