<svg xmlns="http://www.w3.org/2000/svg" xmlns:xlink="http://www.w3.org/1999/xlink" width="14" height="14" version="1.1" viewBox="0 0 14 14"><title>C2286F50-1C96-4E0C-85D0-CD70C85AC96E</title><g id="Home" fill="none" fill-rule="evenodd" stroke="none" stroke-width="1"><g id="VSC-icons" fill="#C5C5C5" fill-rule="nonzero" transform="translate(-675.000000, -290.000000)"><path id="diagram-view" d="M688.5,290 L689,290.5 L689,294.5 L688.5,295 L682.5,295 L682.5,299 L688.5,299 L689,299.5 L689,303.5 L688.5,304 L675.5,304 L675,303.5 L675,299.5 L675.497457,299 L681.5,299 L681.5,295 L675.5,295 L675,294.5 L675,290.5 L675.5,290 L688.5,290 Z M688,300 L676,300 L676,303 L688,303 L688,300 Z M688,291 L676,291 L676,294 L688,294 L688,291 Z"/></g></g></svg>