<svg xmlns="http://www.w3.org/2000/svg" xmlns:xlink="http://www.w3.org/1999/xlink" width="14" height="14" version="1.1" viewBox="0 0 14 14"><title>30444A0F-5044-410A-9B4E-F75DEA1505DB</title><g id="Home" fill="none" fill-rule="evenodd" stroke="none" stroke-width="1"><g id="VSC-icons" fill="#000" transform="translate(-389.000000, -133.000000)"><g id="new-file" transform="translate(389.000000, 133.000000)"><path id="Shape" d="M4,7 L3,7 L3,4 L0,4 L0,3 L3,3 L3,0 L4,0 L4,3 L7,3 L7,4 L4,4 L4,7 Z M10.5,1.09998 L13.9,4.59998 L14,5 L14,13.5 L13.5,14 L3.5,14 L3,13.5 L3,8 L4,8 L4,13 L13,13 L13,6 L9,6 L9,2 L5,2 L5,1 L10.2,1 L10.5,1.09998 Z M10,2 L10,5 L12.9,5 L10,2 Z"/></g></g></g></svg>