<svg xmlns="http://www.w3.org/2000/svg" xmlns:xlink="http://www.w3.org/1999/xlink" width="15" height="14" version="1.1" viewBox="0 0 15 14"><title>A03652D4-7A30-40CB-8664-61A0E6E672AD</title><g id="Home" fill="none" fill-rule="evenodd" stroke="none" stroke-width="1"><g id="VSC-icons" fill="#000" transform="translate(-100.000000, -133.000000)"><g id="new-folder" transform="translate(100.000000, 133.000000)"><path id="Shape" d="M7,3 L4,3 L4,0 L3,0 L3,3 L0,3 L0,4 L3,4 L3,7 L4,7 L4,4 L7,4 L7,3 Z M5.5,7 L5,7 L5,6 L5.3,6 L6.1,5.1 L6.5,5 L14,5 L14,4 L8,4 L8,3 L14.5,3 L15,3.5 L15,13.5 L14.5,14 L1.5,14 L1,13.5 L1,6.5 L1,6 L1,5 L2,5 L2,6 L2,6.5 L2,13 L14,13 L14,7 L14,6 L6.7,6 L5.9,6.9 L5.5,7 Z"/></g></g></g></svg>