<svg xmlns="http://www.w3.org/2000/svg" xmlns:xlink="http://www.w3.org/1999/xlink" width="12" height="12" version="1.1" viewBox="0 0 12 12"><title>A7BC20BD-3672-4F92-8CFD-D47CBDEF12D5</title><g id="Home" fill="none" fill-rule="evenodd" stroke="none" stroke-width="1"><g id="VSC-icons" fill="#C5C5C5" transform="translate(-534.000000, -134.000000)"><g id="refresh" transform="translate(534.000000, 134.000000)"><path id="Combined-Shape" d="M3.5,0 L4,0.5 L4,4 L3,4 L2.99992162,1.99967947 C1.78552351,2.91189084 1,4.36421065 1,5.99999 C1,8.7614 3.23858,11 6,11 C8.7614,11 11,8.7614 11,5.99999 C11,3.7721 9.5429,1.88454 7.52968,1.23832 L7.52968,1.23832 L7.83199,0.28482 C10.2497,1.05919 12,3.32519 12,5.99999 C12,9.3137 9.3137,12 6,12 C2.68629,12 0,9.3137 0,5.99999 C0,3.91312417 1.06540863,2.0750949 2.68197238,1.00014947 L0,1 L0,0 L3.5,0 Z"/></g></g></g></svg>