<svg xmlns="http://www.w3.org/2000/svg" xmlns:svg="http://www.w3.org/2000/svg" id="layer" x="0" y="0" version="1.1" viewBox="0 0 652 652" xml:space="preserve" style="enable-background:new 0 0 652 652"><style id="style1" type="text/css">.st1{fill:#fff}</style><polygon id="polygon1" points="433.2 315.7 373.9 315.7 373.9 304.5 425.6 304.5 457.3 234 492.6 319.8 506.7 294.6 540.8 294.6 540.8 305.7 513.7 305.7 491.4 346.3 456.7 262.8" class="st1" transform="matrix(2.9791676,0,0,2.9791676,-1034.035,-566.8927)" style="fill:#000"/><path id="path2" d="M 533.3051,123.38044 C 479.08425,67.372089 410.86132,39.367914 328.33837,39.367914 h -3.575 c -50.64585,0 -99.80211,12.214587 -143.59588,38.431262 -43.79377,26.216674 -78.65003,61.370854 -105.164621,106.654204 -26.514592,45.28333 -38.431262,94.4396 -38.431262,147.17086 0,78.65003 28.004175,147.17088 84.012523,203.17923 56.00835,56.00835 124.2313,84.01253 206.45633,84.01253 v 0 c 80.43752,0 148.95838,-28.00418 204.96673,-84.01253 56.00835,-56.00835 84.01252,-124.23129 84.01252,-204.96673 2.08542,-82.22502 -25.91875,-152.23545 -83.71461,-206.4563 z m -1.7875,323.83551 c -21.15209,36.64376 -49.15626,64.64793 -84.01252,85.80002 -36.64376,21.15209 -75.37294,31.57918 -117.37921,31.57918 h -1.7875 c -64.64793,0 -119.16671,-22.64167 -164.45006,-66.43544 -45.58126,-45.58126 -68.222935,-99.80211 -68.222935,-166.23755 0,-43.79376 10.427085,-84.01253 29.791675,-120.65628 21.15209,-35.15417 49.15627,-64.64793 85.80003,-85.80002 36.64377,-21.15209 75.37295,-31.579179 115.59171,-31.579179 h 1.7875 c 40.21876,0 80.43753,10.427089 115.5917,31.579179 36.64376,21.15209 64.64794,49.15626 85.80003,84.01252 21.15209,35.15417 29.79168,75.37293 29.79168,119.1667 1.48958,43.19793 -9.23542,83.41669 -28.3021,118.57087 z" style="stroke-width:2.97917"/></svg>