<svg xmlns="http://www.w3.org/2000/svg" width="14" height="14" version="1.1" viewBox="0 0 14 14" xmlnsXlink="http://www.w3.org/1999/xlink"><g id="VSC" fill="none" stroke="none" fillRule="evenodd" strokeWidth="1"><g id="VSC-icons" fill="currentColor" fillRule="nonzero" transform="translate(-677.000000, -613.000000)"><path id="caller-icon" d="M687,616 L687,619.5 L686,619.5 L686,617.706 L681,622.706 L681,627 L677,627 L677,622 L680.292,622 L685.292,617 L683.5,617 L683.5,616 L687,616 Z M680,623 L678,623 L678,626 L680,626 L680,623 Z M691,613 L691,623 L685.706,623 L682.853553,625.853553 L682.146447,625.146447 L685.292893,622 L690,622 L690,614 L681,614 L681,618.5 L680,618.5 L680,613 L691,613 Z"/></g></g></svg>