<svg xmlns="http://www.w3.org/2000/svg" width="682.667" height="682.667" preserveAspectRatio="xMidYMid meet" version="1.0" viewBox="0 0 512 512"><g fill="#000" stroke="none"><path d="M340 4788 c-19 -21 -20 -33 -20 -375 l0 -354 25 -24 24 -25 851 0 850 0 0 -1540 0 -1540 554 -2 554 -3 -84 -260 c-46 -143 -84 -272 -84 -287 0 -35 32 -68 67 -68 17 0 325 172 852 477 454 262 834 483 844 491 11 10 17 29 17 53 0 34 -5 42 -37 63 -21 14 -400 234 -843 490 -500 290 -814 466 -830 466 -31 0 -70 -37 -70 -66 0 -10 38 -139 84 -287 l83 -267 -153 0 -154 0 0 1540 0 1540 -1255 0 -1254 0 -21 -22z" transform="translate(0.000000,512.000000) scale(0.100000,-0.100000)"/></g></svg>