<svg xmlns="http://www.w3.org/2000/svg" width="13" height="16" fill="none" viewBox="0 0 13 16"><path fill="#000" d="M1.7 1.60005C1.55046 1.60005 1.3 1.79021 1.3 2.10005V14.7C1.3 15.0099 1.55046 15.2 1.7 15.2H11.2C11.4791 15.2 11.7 14.9791 11.7 14.7V2.10005C11.7 1.82096 11.4791 1.60005 11.2 1.60005H1.7ZM0.5 2.10005C0.5 1.40988 1.04954 0.800049 1.7 0.800049H11.2C11.9209 0.800049 12.5 1.37913 12.5 2.10005V14.7C12.5 15.421 11.9209 16 11.2 16H1.7C1.04954 16 0.5 15.3902 0.5 14.7V2.10005Z"/><path fill="#000" d="M1.8 4.10005C1.8 3.87913 1.97909 3.70005 2.2 3.70005H10.8C11.0209 3.70005 11.2 3.87913 11.2 4.10005V6.00005C11.2 6.22096 11.0209 6.40005 10.8 6.40005H2.2C1.97909 6.40005 1.8 6.22096 1.8 6.00005V4.10005ZM2.6 4.50005V5.60005H10.4V4.50005H2.6Z"/></svg>