<svg xmlns="http://www.w3.org/2000/svg" width="14" height="14" version="1.1" viewBox="0 0 14 14" xmlnsXlink="http://www.w3.org/1999/xlink"><g id="VSC" fill="none" stroke="none" fillRule="evenodd" strokeWidth="1"><g id="VSC-icons" fill="currentColor" fillRule="nonzero" transform="translate(-101.000000, -614.000000)"><path id="query-icon" d="M115,614 L115,626 L110,626 L108,628 L106,626 L101,626 L101,614 L115,614 Z M114,615 L102,615 L102,625 L106.414214,625 L108,626.585 L109.585786,625 L114,625 L114,615 Z M108.5,623 L108.5,624 L107.5,624 L107.5,623 L108.5,623 Z M111.5,616.5 L111.5,620.36038 L108.5,621.36 L108.5,622 L107.5,622 L107.5,620.63962 L110.5,619.639 L110.5,617.5 L105.5,617.5 L105.5,619 L104.5,619 L104.5,616.5 L111.5,616.5 Z"/></g></g></svg>